<svg xmlns="http://www.w3.org/2000/svg" width="100" height="100" viewBox="0 0 100 100"><rect width="100" height="100" rx="22" fill="#2C2C2C"/><g transform="translate(3 26.5) scale(0.47)"><path fill="#FFFFFF" fill-rule="evenodd" d="M190 68 C184 62 176 57 166 57 C148 61 130 66 112 70 L30 66 C60 64 80 62 92 60 L2 50 C40 50 70 48 88 46 L24 34 C60 28 100 22 132 26 C150 28 168 30 178 36 C190 42 196 54 190 68 Z M142 33 L172 43 L144 41.5 Z"/><path fill="#E98728" d="M152 36.6 L170 42.5 L153 40.4 Z"/></g></svg>